/* XPM */
static char *result[] = {
/* columns rows colors chars-per-pixel */
"32 32 8 1 ",
"  c #09080B",
". c #12111B",
"X c #1B1A2C",
"o c #20283D",
"O c #2A4C69",
"R c #8B3232",
"r c #662424",
"F c #A04040",
/* pixels */
"..oOOOOOOOo...ooo....... oXXX.o.",
".oooOOOOOOOo.oOOOo...ooo ooXXXo.",
" ooXXXXXXXXX.OOOOOo.oXXX ooXXXR.",
" ooXXFFFFFXX.oXXXXO.oXXX ooooRR ",
" ooXFFFFFXXX.o...Xo oXXX oooooo ",
" .oooXFFFooo.X...Xo oXXX ooooo..",
"....     ....X...Xo .oo. .ooo...",
"++OOo .oOOo..X..XXo          .oO",
"OOOoo.oXXXXo.o..XXo          oO+",
"XXXXX.oX..Xo.o..XXo .oOOOo.  oOX",
"....X.oX..Xo oXXXXo oO+++Oo  ooX",
"...XX..XXX.  oXXXXo OOoXXXo  oo.",
"XXX..        .oooo. OooX.Xo  .oX",
"                   .ooX...o     ",
"oo.  .ooO++++Ooo.  .oX...Xo .ooo",
"ooo .oOOOOOOOOOOo. .oX..XXo.oooo",
"XXo oooXXXXXoooOOo..oX..XXo.oXXX",
"XXo oo.........XOO..oXXXXXo.oX.X",
".Xo ooX.......XXoo..oXXXXXo.oX..",
"XXo ooXX....XXXXoo. .ooXXXo.oX..",
"Xo. ooXXXXXXXXXXo.   .oooo. .oXX",
"    oooooooXXXXX.               ",
"  ..........             .oOOo. ",
".oooOO++++++Oo.  .oOOOo. oOOOOo ",
"oXXXXXXXXXoOOOo  oOOOOOo OXXXXo ",
"XXXXXXXXXXXXoOo  ooXXXoo OXX.Xo.",
"X..........Xooo  oXXXXXX oXX..X.",
"X..........Xooo  oXXXXXX oX...X.",
"XX.......XXoooo  oXXXXXX oX...X.",
".XXXXXXXoooooo.  oXXXXXo oX...X.",
".......          .ooooo. oX...o.",
".............      ...   oX...o."
};