/* XPM */
static char *_e89bcefa5f94dd6d5ea98b2d424ad38YsZFYM1HtC8fyuJy[] = {
/* columns rows colors chars-per-pixel */
"96 64 113 2 ",
"   c #000000",
".  c #0B0000",
"X  c #070F02",
"o  c #150000",
"O  c #1B0000",
"+  c #210000",
"@  c #350000",
"#  c #3D0002",
"$  c #3D1904",
"%  c #002106",
"&  c #440000",
"*  c #4D0000",
"=  c #4F0802",
"-  c #560001",
";  c #5A0000",
":  c #560F00",
">  c #421A00",
",  c #5D1B02",
"<  c #6B0001",
"1  c #6B0009",
"2  c #7E0000",
"3  c #7E0B00",
"4  c #7E0009",
"5  c #6D1801",
"6  c #563806",
"7  c gray29",
"8  c #5A5A5A",
"9  c #8E0000",
"0  c #8E000B",
"q  c #A50000",
"w  c #A90000",
"e  c #A30C00",
"r  c #A9000D",
"t  c #B30000",
"y  c #BA0000",
"u  c #A50013",
"i  c #B50016",
"p  c #C20000",
"a  c #CA0000",
"s  c #CB0009",
"d  c #D20000",
"f  c #DE0000",
"g  c #C21405",
"h  c #DF1706",
"j  c #CB0014",
"k  c #D70014",
"l  c #DF0019",
"z  c #E60000",
"x  c #EC0000",
"c  c #F20000",
"v  c #FF0000",
"b  c #F40902",
"n  c #FF0800",
"m  c #FF0909",
"M  c #E31405",
"N  c #EA1504",
"B  c #E41B05",
"V  c #F41501",
"C  c #FF1600",
"Z  c #FF1A00",
"A  c #E60017",
"S  c #EB0017",
"D  c #E60019",
"F  c #ED001A",
"G  c #F20017",
"H  c #FD0017",
"J  c #F40019",
"K  c #FF001C",
"L  c #FF081F",
"P  c #FF1F1F",
"I  c #DF2006",
"U  c #FF2E00",
"Y  c #FF3600",
"T  c #FF3C00",
"R  c #FF0420",
"E  c #FF0C24",
"W  c #FF132B",
"Q  c #FF2039",
"!  c #A5400D",
"~  c #B05600",
"^  c #A56300",
"/  c #FF4201",
"(  c #FF4800",
")  c #FF5302",
"_  c #FF3242",
"`  c #FF4D4D",
"'  c #FF4150",
"]  c #FF5A5A",
"[  c #FF5663",
"{  c #FF717C",
"}  c #3D891C",
"|  c #00A521",
" . c #00B834",
".. c #3DB924",
"X. c #3DC226",
"o. c #00F430",
"O. c #00FF33",
"+. c #FF8A00",
"@. c #FF9F00",
"#. c #FFB500",
"$. c #FFBD00",
"%. c #FFCC00",
"&. c #FFC611",
"*. c #FFEA03",
"=. c #FFE414",
"-. c #FF939A",
";. c #FFA9AE",
":. c #EFCECE",
">. c #FFC1C1",
",. c #FFC2C7",
"<. c #FFDEDE",
"1. c #FFDEE1",
"2. c white",
/* pixels */
"              p f v v v v v v v v v v v q                     ^   v v v v v q                                                                                     c c c N v O.#                 ",
"            @ w v v v v v v v v v v v                           t ^ v v v   +                                                                                     |   z z b c f     B           ",
"            f + . ; v v v v v v v v # +                       q     q v t ~ ^                                                                                         | | }   f * f 6 f         ",
"                . v v v v v v v v t ^ ^                           q q t +   q q                                                                                           %   | o.V X ; * v   v ",
"&   + o v v v v v v v v v v v v v v v c q                           + +   q q +               +                     # # # # # # - # # # # # @ # # # # # # +                       f ..v * ; o ; ",
"; * v v v v v q   +       + - # - # # @ # # # # - # # # # # # # - # # # # - # # # # # # # - # # # # # # # # # # < < < # @ # - # # # # # # @ @ # o # # O                           f   z v v f v ",
"  f ; ; * v v q + +   w - # < # # @ # # # # - @ # # # @ # # # - - # y # - < # y # # * # - - # y # # - # # # # < 9 < a x x c c c v c c c c c - c c c x x z y # # +                   f z v v v v ",
"    v ; v v       q + < 2 d v x f d c - c d d c v d c c c c c c v c c c c v c c d c c c c v c c c c c c c c c c v f f z - z c p f f f f f * f f   f * q                             f $ v v v v ",
"      ; v z +   q    .v c c c M h * f h p p b & p g g * f h g b f f v h v f z f g b = M c p h v h c f z h h h v v h ; v f v v v v v v v v f v       v ; v v z y # +                 f c v v v v ",
"    v v v v f      .v v v v v v ; v v   v o v f v ; v v v v v v v v v v v v v v ; v v v v v v v v v v v v v v v v ; f v   v ; v f v v f v v           ; v v v f q                     V z v v v ",
"  v p v x z c q   v v v v v v v v v       f ;   ; ; f   v ; v f v v v v v v v ; v v   v ; v f v v v v v v v v v v f f       v * v v f f v * v       v v v v v v q                     f # v v v ",
"* v v v v #     +  .v v v v v v v                 v       v ; v v v v v v v v v v       v ; v v v v v v v v v v v v           ; v v v ; ; v v v   v f v v v v                         f X.B v v ",
"f ; ; * v #   q     :.v v v v v f v                         ; v v v v v v v v v           ; v v v v v v v v v v v * v       ; v f v ; v v   ; O * f v v v v # +                       f q B I v ",
"  v ; v v #       f v m m v v ; v v v   f f       v       v v v v v v v v v v f v       v v v v v v v v v v v v ; v v       f ; v v v v       v * v ; ; m t                         |   q f b v ",
"    ; v v             t v v v v v ; ; o v           ;   v f v v v v v v v v ; v v v   v f v v v v v v v v v v v v v           ; v v v           ; v v v v v v c q                       | | ! y ",
"  v v v v                 + - y v v v f f O       ; ; * v v v v v v v v v v v v ; ; * v v v v v v v v v v v v v v f v                                                                       %   ",
"v f v v f                                                                                             +                                                                                         ",
"v v v v f   2.2.2.2.2.2.2.2.2.2.2.2.2.2.2.8 8 7 2.2.2.2.2.2.2.2.2.2.2.2.2.2.<.<.<.2.2.2.2.2.2.2.2.<.2.2.2.2.2.2.2.2.8 8 7 2.2.2.2.2.2.8 8 7 2.2.2.2.2.2.2.2.2.2.2.2.2.2.2.2.2.2.2.2.            ",
"v ; > b f   2.                                                          + + +                   # #   q     +                                                                     2.            ",
"v - z v f   2.                                                        + # # t q q # + +     + +   q                                                                               2.            ",
"x   f f     2.                                                          q ( ) %.*.        + - + f q *.v %.q   +                                                                   2.            ",
"# q c f     2.                                                        q q ( v v v C T @.-   q / #.#.v v v   q                                                                     2.            ",
"            2.                                                        %.%.v v v v v ) T @./ C #.v v v v v v (                       2.2.2.2.2.  2.    2.  2.2.2.    2.2.2.        2.            ",
"            2.    2.      2.    2.2.    2.    2.                    %.%.v v v v v v v Z ) %.*.v v v v v v   %.%.                        2.      2.    2.    2.    2.              2.            ",
"            2.    2.      2.  2.    2.  2.    2.                  %.%.+ + v v v v v v ) ( %.v v v v v v ) +   %.%.                      2.      2.2.2.2.    2.      2.2.          2.            ",
"            2.      2.2.2.    2.    2.  <.  + 2.                  %.( q q #.v v v v v v ( v v v v v v ` *.    %.%.                      2.      2.    2.    2.          2.        2.            ",
"            2.        -.# + - ,.# # ;.# ;.# # ,.                  %.%.  q C n C v v v #.v v v v v v %.>.*.q q #.#.                      2.      2.    2.  2.2.2.  2.2.2.          2.            ",
"            2.    1 # ;.0 1 1 # -.-.- - p ,.] 4 # +               %.%.    / $.#.` v C Y *.v v v C / *.2.*.    #.#.                                                                2.            ",
"            2.  1 r 0 H G s H G S G H G H J G A # # #             %.%.    #.#.( T T ) ) *.%.v 2.>.%.) P )     #.#.                    2.2.    2.    2.  2.2.2.      2.            2.            ",
"            2.  # H W L H H H E H H A K H E v R J   4 #           %.%.      #.%.%.T *.T C ( T =.=.*.*.=.      %.#.                  2.    2.  2.    2.  2.    2.    2.            2.            ",
"            2.  2.2.2.H H 2.2.2.H 2.2.2.K K 2.K F 2.# # 2.    2.2.2.2.2.    =.#./ #.%.v %.( %.>.] ] =.=.    %.%.                    2.        2.    2.  2.2.2.      2.            2.            ",
"            2.  2.L H 2.K K 2.H H 2.H H 2.H 2.2.K 2.K 1 2.        2.  %.%.    =.+.#.v v v #.` *.2.=.=.    %.%.                      2.    2.  2.    2.  2.                        2.            ",
"            2.  2.K K 2.K K 2.K K 2.K K 2.K 2.K 2.2.H l           2.    %.%.#.%.#.v v v v v / ) &.=.#.%.%.%.                          2.2.      2.2.    2.          2.            2.            ",
"            2.  2.K K 2.K K 2.H H 2.H K 2.H 2.H H 2.K l           2.      # +   z #.v v v n 2.&.&.  +                                                                             2.            ",
"            2.J 2.2.2.K K 2.2.2.K 2.2.2.K K 2.K K 2.              2.  +     q q     v v v v ) v %.t   +                                                                           2.            ",
"            2.l J K K K K K K K K K K K K K K K K s #               + +   f     v v v v v v v v v %.f     +                                                                       2.            ",
"            2.  # 2.2.K K 2.2.2.2.K 2.2.2.2.2.K K K l                 q       v v v v v v v v v v v )                                                                             2.            ",
"            2.l 2.l K K K 2.K K K K K K 2.K F 0 # K K l             q     v v v v v v v v v v v v #.v *.q   +                                                                     2.            ",
"            2.u 2.l 2.2.K 2.2.2.K K K K 2.J # J K l                     v v v v v v T C v v v v %.v v v *.q                                                                       2.            ",
"            2.  2.u u 2.# 2.K K K K K K 2.K K K l                     v v v v v v ( #.T ( v Z U v v v v v )                                                                       2.            ",
"            2.    2.2.+   2.2.2.2.      2.                          +   v v v ( / *.*.) ) T %.Y / v v v %.%.%.                                                                    2.            ",
"            2.                                                    q       v   + +   q q   + q q q   v   +                                                                         2.            ",
"            2.                                                        q q t                     q q t                                                                             2.            ",
"            2.2.2.2.2.2.2.2.2.2.2.2.2.2.2.2.2.2.2.2.2.2.,.,.,.,.,.,.1.2.2.<.2.] ] 2.2.2.2.2.2.2.2.2.<.2.] ] 2.2.2.2.2.2.2.2.2.2.2.2.2.2.2.2.2.2.2.2.2.2.2.2.2.2.2.2.2.2.2.2.2.2.2.2.            ",
"                                                    # # # # # # +     # # # # #                                                                       # # # # # # # # # # #                     ",
"                                                  # 1 1 S S S S S F k 1 1 -   # # # # # # # # # # # # # # #                 # # # # # # # # # # # 1 1 # # # # # # 1 1 1 # 1 1 #                 ",
"                                                    l l l l l l j 1 1 S S S F F 1 1 1 # # # # # # # # #   1 0 1 1 0 0 0 r r r 0 0 0 1 1 # # 1 1 0 r r J J G G J J J J J G F # # #               ",
"                  2.      2.    2.2.    2.    2.  l l l K K K H H K K K J E 4 S W S G G G E E G G E E L G G r ' ' r 0 [ ' [ J J G J G E L J J J J H K W F G E J J K K K E K K A 1 1 #           ",
"@                 2.      2.  2.    2.  2.    2.      K K K K K 2.2.2.K 2.K K 2.K K 2.2.Q l 2.A A 2.G 2._ H H H 2.2.2.K H H H 2.2.2.2.2.J 2.2.2.K K 2.K K K 2.H K K K H H H W A # #             ",
"#   #               2.2.2.    2.    2.  2.    2.    K K K K K 2.K K K K 2.K K 2.H 2.K K 2.K 2.H K 2.K 2.H H H H 2.H H 2.H K K K K 2.H H H 2.K K 2.H 2.H H K 2.K K K K K K K K K K F 1 #         ",
"* # # @               2.      2.    2.  2.    2.  # # K K K K K 2.2.K K 2.2.2.2.K 2.K K 2.K 2.K K 2.K 2.K K K K 2.K K 2.K K H H H 2.H K K 2.2.2.K K K 2.2.2.K K K K K K K K K K K K l           ",
"f z   <               2.        2.2.      2.2.  l l l l K K K K H H 2.H 2.H H 2.K 2.H H 2.K 2.K K 2.K 2.K H H H 2.K K 2.K K K K K 2.K K K 2.K 2.K K K K 2.K K K K K K K K K K K K K l           ",
"  v ; # ;                                           l K K K H 2.2.2.H K 2.K H 2.H H 2.2.K H H 2.2.K K 2.2.2.2.K 2.2.2.K K K K K K 2.K K K 2.K K 2.K K K 2.K K K K K K K K K K K K               ",
"    v - 9                                               # 0 H H K K K H H H K K K K K H H H K K K K K K K K K K K K K K K K K K K K K K K K K K K K K K K K K K K K K K K K K K 1 #           # ",
"      ; < 9 #                                           # { S K 2.2.K K K 2.2.H H H 2.2.K K 2.2.2.K 2.K K 2.K K K K K K K K K K K K K K K K K K K K K H H K K K K K K K K K K K l         # - - ",
"    v v v 9 < 9 +                                       - L K 2.K K 2.K 2.K H K K 2.K K 2.K K 2.K K 2.2.K 2.K K K K K K K K K H K K K K K K K K K K K K K K K K K H H H H H J K K K l   9 w , f ",
"  v f v v c x < ; 3 # #                               + D R u 2.2.2.2.H 2.K 2.2.K 2.2.2.2.K K 2.K K 2.K 2.2.K K K K H K K K K K K K K K K K K K K K K H H H H H H H K K K K l       # 9 e x c c ",
"@ & f v f v f v d < < +                                 J   K 2.K K 2.H 2.K K 2.K 2.K K 2.K K 2.K H 2.K K 2.K K K K K K K K K K K H H H H H H H H H K K K K J S K K K K K K l     < 9 5 f v - v ",
"p v ; ; v f f v ; b x a : # #                         u   K K 2.K K 2.K K 2.2.K K 2.K K 2.K 2.2.2.K 2.K K 2.K K K K K K K K K K K K K K K K K K F # # A K K K K K l             # < z v ;   v v ",
"O   ; & p p ; v v v y < +                               A K K K K K K K K K K F A K K K K K K K K K K K K K K F # # A K K K K K K K K K K K K K K K K l                           v v - v v   v ",
"      v ; ; v v   v ; v a x # #                       l K K K K K K F # # A K K K K A # A K K K K K K K K K K K K K l                                                           f f   v v       ",
"        o p f       v ; v f f                         D   K K K F 1 A K K l                                                                                                         v v         ",
"        + ;           ; v v f                       u     l K F - l K l                                                                                                           v v f v       ",
"          * v       v v v                               u u i #   l l                                                                                                           z z ; v v v   v "
};
