/* XPM */
static char *_9f1cb66f45f41b3dd3544e4b30b8e40AlH8Ugp7aTCoFtO0[] = {
/* columns rows colors chars-per-pixel */
"96 64 56 1 ",
"  c black",
". c #211500",
"X c #002106",
"o c #003D0B",
"O c #3D2700",
"+ c #213105",
"@ c #563600",
"# c #214A09",
"$ c #A56300",
"% c #A56E02",
"& c #B56C00",
"* c #BA7000",
"= c #21A41C",
"- c #3DA419",
"; c #21B71F",
": c #00A521",
"> c #00B023",
", c #00B525",
"< c #00B834",
"1 c #3DD021",
"2 c #00F430",
"3 c #00F830",
"4 c #00FF33",
"5 c #3DE926",
"6 c #21F32C",
"7 c #56DF21",
"8 c #A59D0B",
"9 c #A5A50C",
"0 c #BAA309",
"q c #A5B20F",
"w c #B5B60E",
"e c #A5BD12",
"r c #DF8600",
"t c #DF8A00",
"y c #E78A00",
"u c #E68C00",
"i c #EA8D00",
"p c #E69C03",
"a c #F49200",
"s c #F69700",
"d c #FB9600",
"f c #FD9700",
"g c #FB9800",
"h c #FF9900",
"j c #DFA606",
"k c #E5A204",
"l c #E3A505",
"z c #ECA403",
"x c #E8A204",
"c c #FFB700",
"v c #FFCC00",
"b c #FFD900",
"n c #FFEA03",
"m c #FFE414",
"M c gray93",
"N c white",
/* pixels */
"hhhhhhhhhhhhh. hhh             $   h .                                            X 444    4hhhh",
"hhhhhhhhhhhh*.  h .              $$&                                             :   4 X  4hhhhh",
"hhhhhhhhhhd&  $$&                  . $$                                            ::,   o#ehhhh",
"hhhfiO.ussgdda$ . $$                                                                 X :2q:X6hex",
"=10sgddr                                                                                  2eek4.",
"4 > ::                                                                                      9;3h",
"44:                                                                                         X hh",
"4                                                                                          XXhhh",
".X        <<   <<  <  <  <<  <<<   <<  <<<<<  <<<   <<<  <<<   <<   <<     <                = hh",
"         < MN < MM <M <M< MM <MMM < MM  MMMMM< MMM  <MMM <MMM < MM < MM    <M              8  4h",
"$::.     <M  M<M <M<MM<M<M<< <M< M<M<<M  <M   M<    <M< M<M< M<M <M<M <M   <M                eew",
"         <M < <M <M<M MM<M MM<MMM <MMMM  <M    MM   <MMM <MMM <M <M<M <M    M               4446",
"h $ .     M< M M< M<M <M M< M<M M <M <M  <M  <<< M  <M< M<M M  M< M M< M   <               X 444",
"hh $       MM   MM  M  M  MM  M  M M  M   M   MMM    MMM  M  M  MM   MM     M             :   4 ",
"hhh$                                                                                        ::, ",
"hh                                                                                            X ",
"h .                                                                                             ",
"&     NNNNNNNNNNNNNNNNNNNNNNNNNNNNNNNNNNNNNNNNNNNNNNNNNNNNNNNNNNNNNNNNNNNNNNNNNNNNNNNNNNNN      ",
". $$  N                                                                                  N      ",
"      N                                                                                  N      ",
"      N                              vnnn         nnn                                    N      ",
"      N                              vvNnccc   cccnNn                                    N      ",
"      N                            vvcvvnnncccccnnnNvvv           NNNNN N  N NNN  NNN    N      ",
"      N  N   N  NN  N  N          vv cvvnnnnnnnnnnnNn vv            N   N  N  N  N       N      ",
"      N  N   N N  N N  N         vv  cvvNnnnvvnnnnnNn  vv           N   NNNN  N   NN     N      ",
"      N   NNN  N  N N  N         vv  cvvNNNvvvnNNnnNn  vv           N   N  N  N     N    N      ",
"      N    N   N  N N  N         vv  cvvNNnvvvNNnnnNn  cc           N   N  N NNN NNN     N      ",
"      N    N    NN   NN          vv  cbvNnvvnvNNnnnNn  cc                                N      ",
"      N                          vv  ccvvnnnnvNNNnnNn  cc          NN  N  N NNN   N      N      ",
"      N   NN   NN  NNNNN         vv   cvvvnvvvvmmnnm   vc         N  N N  N N  N  N      N      ",
"      N  N    N  N   N            vv  mccvvvvnnNNNmm  vv          N    N  N NNN   N      N      ",
"      N  N NN N  N   N             vv  mcvbvvnNnNmm  vv           N  N N  N N            N      ",
"      N  N  N N  N   N              vvvvccvNvccnmmvvvv             NN   NN  N     N      N      ",
"      N   NN   NN    N                   cccccNmm                                        N      ",
"      N                                   ccccnmn                                        N      ",
"      N                                  cccvvncnn                                       N      ",
"      N                                 cccvvvccnnn                                      N      ",
"      N                                vccvnvvvcnccn                                     N      ",
"      N                               vcccvvvnncvnccn                                    N      ",
"      N                              ccccvvvvvnccvnnnn                                   N      ",
"      N                             vccvmnnmmmvvcvvvvvv                                  N      ",
"      N                                                                                  N      ",
"      N                                                                                  N      ",
"      NNNNNNNNNNNNNNNNNNNNNNNNNNNNNNNNNNNNNNNNNNNNNNNNNNNNNNNNNNNNNNNNNNNNNNNNNNNNNNNNNNNN      ",
"                                                                                                ",
"                                                                                                ",
"                                                                                                ",
"         N   N  NN  N  N    NN   NN  N  N    NN  NNN   NN  NNN     NN     NN  N  N NNN          ",
"         N   N N  N N  N   N  N N  N NN N   N    N  N N  N N  N   N  N   N  N N  N N  N         ",
"          NNN  N  N N  N   N    NNNN N NN   N NN NNN  NNNN NNN    NNNN   N    N  N NNN          ",
"           N   N  N N  N   N  N N  N N  N   N  N N N  N  N N  N   N  N   N  N N  N N            ",
"           N    NN   NN     NN  N  N N  N    NN  N  N N  N NNN    N  N    NN   NN  N            ",
"X                                                                                               ",
"                              NN  NNNN    NN   NN  NNNN NNNN NNNN  N                            ",
":  X                         N  N N      N  N N  N N    N    N     N                            ",
"                             N  N NNN    N    N  N NNN  NNN  NNN   N                          + ",
"5X-O+    .                   N  N N      N  N N  N N    N    N                              +   ",
"55.: X .                      NN  N       NN   NN  N    N    NNNN  N                       ++ 8 ",
"z7lp%O@O $  .                                                                               8   ",
"jj%X : $X                                                                                  8  h ",
"hehhhtyO.h $ .                                                                               hhh",
"hhhhhhr8hhh $                                                                               hhhh",
"hhhhhhhhhhhh$                                                                              + hhh",
"hhhhhh64hhh                                                                               8   h "
};
