
/* XPM */
static char *result[] = {
/* columns rows colors chars-per-pixel */
"32 32 4 1",
"  c #283633",
". c #DADAD8",
"X c #F4F4F4",
"o c None",
/* pixels */
"oooooooooooooooooooooooooooooooo",
"oooooooooooooooooooooooooooooooo",
"oooooooooooooooooooooooooooooooo",
"oooooooooooooooooooooooooooooooo",
"oooooooooooooooooooooooooooooooo",
"oooooooooooooooooooooooooooooooo",
"ooooooooooooooo       oooooooooo",
"ooooooooooooo XXXXXXX oooooooooo",
"oooooooooooo XXXXXXXXX ooooooooo",
"oooooooooooo XXXXXXXXX ooooooooo",
"oooooooooooo XXXXXXXXX ooooooooo",
"ooooooooooo .XX XXX XX. oooooooo",
"ooooooooooo .XX XXX XX. oooooooo",
"oooooooooooo XXXXXXXXX ooooooooo",
"ooooooooooooo .XXXXX. oooooooooo",
"oooooooooooooo  .....  ooooooooo",
"oooooooooooo XX XXXX X ooooooooo",
"oooooooooooo X. XXXX . ooooooooo",
"ooooooooooooo  XX.XX  oooooooooo",
"oooooooooooooo .. .. ooooooooooo",
"oooooooooooooooooooooooooooooooo",
"oooooooooooooooooooooooooooooooo",
"oooooooooooooooooooooooooooooooo",
"oooooooooooooooooooooooooooooooo",
"oooooooooooooooooooooooooooooooo",
"oooooooooooooooooooooooooooooooo",
"oooooooooooooooooooooooooooooooo",
"oooooooooooooooooooooooooooooooo",
"oooooooooooooooooooooooooooooooo",
"oooooooooooooooooooooooooooooooo",
"oooooooooooooooooooooooooooooooo",
"oooooooooooooooooooooooooooooooo",
};

