/* XPM */
static char *_f6d4e8c690648fe914c2cf05a9deeebVGXQyFPKzHAk6jfq[] = {
/* columns rows colors chars-per-pixel */
"32 32 3 1 ",
"  c #454444",
". c gray32",
"X c #605D5D",
/* pixels */
"X.X.X. .. ....... .... .........",
"..............X..........X......",
"....X.. ....XX.X...... X. ... ..",
"........... ... ...X............",
" ..X.X..........X....X...X .... ",
"..... ...... ..... ...X.. ......",
". ....... ....... ...........XX.",
". ......X........X..............",
"... ....X...... ....X...X...X. .",
"...XXX........... .......X.XX...",
" ......... .X.......X.......... ",
".....X............. ..X.X.....X ",
"X..X.... .. ............... ....",
"... ...X..X...X.. ..........XX..",
"...X.....XX.......... ........ .",
".. .. .... . ....X...X ..X......",
".................. ...........X.",
"... ... .. ...X............X..X ",
"................. ...X..  ......",
". ... .X....... .. ..........X..",
".......... ..........X ...X.....",
"..X.... ..X................... .",
"...X.... ...X. .X....X...X......",
"..... ........... ...........X..",
" .X..............X... .. ...... ",
".X... ...X.. . .....X.........X.",
".......... .....X. ...X ........",
".........X....... ......X. .....",
" . ...... .... ..............X..",
".X. XXX...........X. ..X....X...",
".X... ....... ..................",
".........X.X....X. ........X .. "
};
